<?xml version="1.0" encoding="iso-8859-1"?>
<!-- Generator: Adobe Illustrator 19.0.0, SVG Export Plug-In . SVG Version: 6.00 Build 0)  -->
<svg version="1.1" id="Layer_1" xmlns="http://www.w3.org/2000/svg" xmlns:xlink="http://www.w3.org/1999/xlink" x="0px" y="0px"
	 viewBox="0 0 383.468 383.468" style="enable-background:new 0 0 383.468 383.468;" xml:space="preserve">
<g>
	<g>
		<path style="fill:#C3C6C8;" d="M299.651,107.553c0-11.791-9.647-21.438-21.438-21.438H21.438C9.648,86.115,0,95.762,0,107.553
			v160.499c0,11.791,9.648,21.438,21.438,21.438h256.776c11.791,0,21.438-9.647,21.438-21.438L299.651,107.553L299.651,107.553z"/>
		<path style="fill:#E8E8E8;" d="M149.825,166.118L0,261.963v6.089c0,11.791,9.648,21.438,21.438,21.438h256.776
			c11.791,0,21.438-9.647,21.438-21.438v-6.089L149.825,166.118z"/>
		<path style="fill:#E8E8E8;" d="M149.825,209.488l149.826-95.849v-6.087c0-11.791-9.647-21.438-21.438-21.438H21.438
			C9.648,86.115,0,95.762,0,107.553v6.087L149.825,209.488z"/>
		<path style="fill:#AF8400;" d="M298.5,100.657l-148.675,95.108L1.151,100.657C0.409,102.825,0,105.144,0,107.553v6.087
			l149.825,95.849l149.826-95.849v-6.087C299.651,105.144,299.242,102.825,298.5,100.657z"/>
	</g>
	<path style="fill:#AF8400;" d="M220.422,216.675l54.903-54.903c6.121-6.12,11.129-4.046,11.129,4.61v24.174h81.275
		c8.656,0,15.739,7.082,15.739,15.738v43.02c0,8.656-7.083,15.739-15.739,15.739h-81.275v24.173c0,8.657-5.008,10.73-11.129,4.61
		l-54.903-54.903C214.302,232.813,214.302,222.795,220.422,216.675z"/>
</g>
<g>
</g>
<g>
</g>
<g>
</g>
<g>
</g>
<g>
</g>
<g>
</g>
<g>
</g>
<g>
</g>
<g>
</g>
<g>
</g>
<g>
</g>
<g>
</g>
<g>
</g>
<g>
</g>
<g>
</g>
</svg>
